<?xml version="1.0" encoding="utf-8"?>
<!-- Generator: Adobe Illustrator 16.0.0, SVG Export Plug-In . SVG Version: 6.00 Build 0)  -->
<!DOCTYPE svg PUBLIC "-//W3C//DTD SVG 1.1//EN" "http://www.w3.org/Graphics/SVG/1.1/DTD/svg11.dtd">
<svg version="1.1" id="Layer_1" xmlns="http://www.w3.org/2000/svg" xmlns:xlink="http://www.w3.org/1999/xlink" x="0px" y="0px"
	 width="65.078px" height="65.089px" viewBox="0 0 65.078 65.089" enable-background="new 0 0 65.078 65.089" xml:space="preserve">
<path fill="#FFFFFF" d="M52.05,21.361c-1.394,0.618-2.892,1.036-4.465,1.224c1.605-0.962,2.838-2.486,3.419-4.3
	c-1.502,0.89-3.166,1.538-4.937,1.886c-1.418-1.511-3.438-2.455-5.674-2.455c-4.294,0-7.773,3.48-7.773,7.773
	c0,0.609,0.068,1.203,0.202,1.771c-6.461-0.323-12.188-3.418-16.023-8.122c-0.669,1.148-1.052,2.483-1.052,3.908
	c0,2.697,1.372,5.077,3.458,6.47c-1.273-0.04-2.472-0.39-3.521-0.972c0,0.032-0.001,0.065-0.001,0.097
	c0,3.767,2.68,6.908,6.236,7.622c-0.651,0.177-1.338,0.271-2.048,0.271c-0.501,0-0.988-0.048-1.462-0.138
	c0.988,3.087,3.859,5.335,7.261,5.397c-2.661,2.086-6.012,3.328-9.654,3.328c-0.626,0-1.246-0.037-1.854-0.108
	c3.44,2.205,7.526,3.492,11.916,3.492c14.297,0,22.116-11.845,22.116-22.117c0-0.337-0.007-0.672-0.022-1.006
	C49.69,24.289,51.008,22.92,52.05,21.361z"/>
</svg>
